<?xml version="1.0" encoding="utf-8"?>
<svg xmlns="http://www.w3.org/2000/svg" viewBox="0 0 513.489 513.49">
  <g id="Layer_1" transform="matrix(1, 0, 0, 1, -204.136688, 10.491607)">
    <polygon style="stroke-width: 1px; fill: rgb(201, 237, 115);" points="717.554 406.484 717.554 493.633 655.88 493.633 623.199 450.058 655.88 406.484"/>
    <rect x="203.901" y="406.484" style="stroke-width: 1px; fill: rgb(202, 237, 115);" width="462.979" height="87.149"/>
    <polygon style="fill: rgb(170, 195, 109); stroke-width: 1px;" points="645.204 231.053 673.157 231.053 615.464 130.825 637.752 120.984 566.944 -2.027 523.369 198.372 566.944 341.122 708.561 341.122"/>
    <polygon style="fill: rgb(202, 237, 115); stroke-width: 1px;" points="566.944 341.122 425.327 341.122 488.684 231.053 460.731 231.053 524.088 120.984 496.135 120.984 566.944 -2.027"/>
    <polygon style="fill: rgb(127, 144, 88); stroke-width: 1px;" points="432.778 231.053 460.731 231.053 403.038 130.825 425.327 120.984 354.518 -2.027 321.837 198.372 354.518 341.122 496.135 341.122"/>
    <polygon style="fill: rgb(149, 172, 102); stroke-width: 1px;" points="354.518 341.122 212.901 341.122 276.258 231.053 248.305 231.053 311.663 120.984 283.71 120.984 354.518 -2.027"/>
    <path d="M 718.561 398.314 L 575.114 398.314 L 575.114 349.293 L 708.561 349.293 C 711.478 349.293 714.173 347.737 715.634 345.212 C 717.094 342.687 717.097 339.575 715.642 337.046 L 659.336 239.226 L 673.157 239.226 C 676.074 239.226 678.769 237.67 680.23 235.145 C 681.69 232.62 681.693 229.508 680.238 226.979 L 623.932 129.159 L 637.753 129.159 C 640.67 129.159 643.365 127.603 644.826 125.078 C 646.286 122.553 646.289 119.441 644.834 116.912 L 574.025 -6.103 C 572.567 -8.636 569.867 -10.197 566.944 -10.197 C 564.021 -10.197 561.321 -8.636 559.863 -6.103 L 489.054 116.912 C 487.599 119.44 487.602 122.553 489.062 125.078 C 490.522 127.603 493.218 129.159 496.135 129.159 L 509.956 129.159 L 471.785 195.475 C 469.534 199.386 470.879 204.381 474.789 206.631 C 478.698 208.881 483.695 207.536 485.946 203.627 L 531.167 125.064 C 532.622 122.537 532.619 119.424 531.16 116.898 C 529.7 114.373 527.003 112.817 524.087 112.817 L 510.265 112.817 L 566.943 14.35 L 623.622 112.817 L 609.801 112.817 C 606.884 112.817 604.189 114.373 602.728 116.898 C 601.268 119.423 601.265 122.535 602.72 125.064 L 659.026 222.885 L 645.205 222.885 C 642.288 222.885 639.593 224.441 638.132 226.966 C 636.672 229.491 636.669 232.603 638.124 235.132 L 694.43 332.952 L 532.404 332.952 C 527.892 332.952 524.234 336.61 524.234 341.122 C 524.234 345.634 527.892 349.292 532.404 349.292 L 558.773 349.292 L 558.773 398.313 L 362.688 398.313 L 362.688 349.292 L 496.135 349.292 C 499.052 349.292 501.747 347.736 503.208 345.211 C 504.668 342.686 504.671 339.574 503.216 337.045 L 446.91 239.225 L 460.731 239.225 C 465.265 239.225 468.923 235.567 468.923 231.055 C 468.923 229.368 468.411 227.799 467.535 226.497 L 411.506 129.158 L 425.327 129.158 C 429.861 129.158 433.519 125.5 433.519 120.988 C 433.519 119.301 433.007 117.732 432.131 116.43 L 361.599 -6.103 C 360.142 -8.636 357.441 -10.197 354.518 -10.197 C 351.595 -10.197 348.895 -8.636 347.437 -6.103 L 276.629 116.913 C 275.174 119.441 275.177 122.554 276.637 125.079 C 278.097 127.604 280.793 129.16 283.71 129.16 L 297.531 129.16 L 241.225 226.98 C 239.77 229.508 239.773 232.621 241.233 235.146 C 242.693 237.671 245.389 239.227 248.306 239.227 L 262.127 239.227 L 205.82 337.046 C 204.365 339.574 204.368 342.687 205.828 345.212 C 207.289 347.737 209.984 349.293 212.901 349.293 L 346.348 349.293 L 346.348 398.314 L 205.901 398.314 C 201.389 398.314 201.389 414.654 205.901 414.654 L 718.561 414.654 C 723.073 414.654 723.073 398.314 718.561 398.314 Z M 283.337 235.132 C 284.792 232.604 284.789 229.491 283.329 226.966 C 281.869 224.441 279.173 222.885 276.256 222.885 L 262.436 222.885 L 318.742 125.064 C 320.197 122.537 320.194 119.424 318.734 116.898 C 317.274 114.373 314.578 112.817 311.661 112.817 L 297.84 112.817 L 354.518 14.35 L 411.196 112.817 L 397.375 112.817 C 394.458 112.817 391.763 114.373 390.302 116.898 C 388.842 119.423 388.839 122.535 390.294 125.064 L 446.6 222.885 L 432.779 222.885 C 429.862 222.885 427.167 224.441 425.706 226.966 C 424.246 229.491 424.243 232.603 425.698 235.132 L 482.004 332.952 L 227.031 332.952 L 283.337 235.132 Z" style="stroke-width: 1px;"/>
    <path d="M 245.582 430.994 C 241.07 430.994 237.412 434.652 237.412 439.164 L 237.412 450.058 C 237.412 454.57 241.07 458.228 245.582 458.228 C 250.094 458.228 253.752 454.57 253.752 450.058 L 253.752 439.164 C 253.752 434.653 250.094 430.994 245.582 430.994 Z" style="stroke-width: 1px;"/>
    <path d="M 278.263 474.569 C 273.751 474.569 270.093 478.227 270.093 482.739 L 270.093 493.633 C 270.093 498.145 273.751 501.803 278.263 501.803 C 282.775 501.803 286.433 498.145 286.433 493.633 L 286.433 482.739 C 286.433 478.227 282.775 474.569 278.263 474.569 Z" style="stroke-width: 1px;"/>
    <path d="M 310.944 452.782 C 306.432 452.782 302.774 456.44 302.774 460.952 L 302.774 471.846 C 302.774 476.358 306.432 480.016 310.944 480.016 C 315.456 480.016 319.114 476.358 319.114 471.846 L 319.114 460.952 C 319.114 456.44 315.456 452.782 310.944 452.782 Z" style="stroke-width: 1px;"/>
    <path d="M 675.88 430.994 C 671.368 430.994 667.71 434.652 667.71 439.164 L 667.71 450.058 C 667.71 454.57 671.368 458.228 675.88 458.228 C 680.392 458.228 684.05 454.57 684.05 450.058 L 684.05 439.164 C 684.05 434.653 680.392 430.994 675.88 430.994 Z" style="stroke-width: 1px;"/>
    <path d="M 523.369 474.569 C 518.857 474.569 515.199 478.227 515.199 482.739 L 515.199 493.633 C 515.199 498.145 518.857 501.803 523.369 501.803 C 527.881 501.803 531.539 498.145 531.539 493.633 L 531.539 482.739 C 531.54 478.227 527.881 474.569 523.369 474.569 Z" style="stroke-width: 1px;"/>
    <path d="M 556.05 452.782 C 551.538 452.782 547.88 456.44 547.88 460.952 L 547.88 471.846 C 547.88 476.358 551.538 480.016 556.05 480.016 C 560.562 480.016 564.22 476.358 564.22 471.846 L 564.22 460.952 C 564.22 456.44 560.562 452.782 556.05 452.782 Z" style="stroke-width: 1px;"/>
    <path d="M 403.54 452.782 C 399.028 452.782 395.37 456.44 395.37 460.952 L 395.37 471.846 C 395.37 476.358 399.028 480.016 403.54 480.016 C 408.052 480.016 411.71 476.358 411.71 471.846 L 411.71 460.952 C 411.71 456.44 408.052 452.782 403.54 452.782 Z" style="stroke-width: 1px;"/>
    <path d="M 321.837 244.672 C 317.325 244.672 313.667 248.33 313.667 252.842 L 313.667 263.736 C 313.667 268.248 317.325 271.906 321.837 271.906 C 326.349 271.906 330.007 268.248 330.007 263.736 L 330.007 252.842 C 330.008 248.33 326.35 244.672 321.837 244.672 Z" style="stroke-width: 1px;"/>
    <path d="M 362.688 231.055 L 362.688 220.161 C 362.688 215.649 359.03 211.991 354.518 211.991 C 350.006 211.991 346.348 215.649 346.348 220.161 L 346.348 231.055 C 346.348 235.567 350.006 239.225 354.518 239.225 C 359.03 239.225 362.688 235.567 362.688 231.055 Z" style="stroke-width: 1px;"/>
    <path d="M 575.114 172.271 L 575.114 161.377 C 575.114 156.865 571.456 153.207 566.944 153.207 C 562.432 153.207 558.774 156.865 558.774 161.377 L 558.774 172.271 C 558.774 176.783 562.432 180.441 566.944 180.441 C 571.456 180.441 575.114 176.783 575.114 172.271 Z" style="stroke-width: 1px;"/>
    <path d="M 607.795 281.207 L 607.795 270.313 C 607.795 265.801 604.137 262.143 599.625 262.143 C 595.113 262.143 591.455 265.801 591.455 270.313 L 591.455 281.207 C 591.455 285.719 595.113 289.377 599.625 289.377 C 604.137 289.377 607.795 285.719 607.795 281.207 Z" style="stroke-width: 1px;"/>
  </g>
</svg>