<?xml version="1.0" encoding="iso-8859-1"?>
<!-- Uploaded to: SVG Repo, www.svgrepo.com, Generator: SVG Repo Mixer Tools -->
<svg version="1.1" id="Layer_1" xmlns="http://www.w3.org/2000/svg" xmlns:xlink="http://www.w3.org/1999/xlink" 
	 viewBox="0 0 511.674 511.674" xml:space="preserve">
<rect x="6.685" y="261.477" style="fill:#CCD1D9;" width="424.13" height="41.896"/>
<polygon style="fill:#8C4C4C;" points="346.343,303.806 511.674,303.806 490.344,389.08 346.343,389.08 "/>
<path style="fill:#F5F7FA;" d="M74.61,292.704c41.224,0,74.64-23.86,74.64-53.294c0,29.434,31.011,53.294,69.268,53.294
	c38.288,0,69.299-23.86,69.299-53.294c0,29.434,33.417,53.294,74.608,53.294c30.199,0,56.199-12.805,67.957-31.23l6.684-138.896
	c0-41.208-36.056-74.608-80.512-74.608c-29.293,0-54.934,14.491-69.018,36.165C273.45,62.462,247.811,47.97,218.517,47.97
	c-29.278,0-54.902,14.491-68.987,36.165C135.429,62.462,109.805,47.97,80.511,47.97C36.039,47.97,0,81.37,0,122.578l6.683,138.896
	C18.428,279.899,44.442,292.704,74.61,292.704z"/>
<g>
	<path style="fill:#CCD1D9;" d="M149.25,287.254c-5.902,0-10.681-4.763-10.681-10.649V84.134c0-5.887,4.778-10.665,10.681-10.665
		c5.871,0,10.649,4.778,10.649,10.665v192.47C159.9,282.491,155.121,287.254,149.25,287.254z"/>
	<path style="fill:#CCD1D9;" d="M287.817,287.254c-5.887,0-10.649-4.763-10.649-10.649V84.134c0-5.887,4.763-10.665,10.649-10.665
		c5.888,0,10.649,4.778,10.649,10.665v192.47C298.467,282.491,293.705,287.254,287.817,287.254z"/>
</g>
<rect x="6.685" y="303.807" style="fill:#A85D5D;" width="424.13" height="85.27"/>
<g>
	<polygon style="fill:#434A54;" points="117.926,324.449 96.596,324.449 96.596,369.951 57.215,347.2 46.535,365.657 
		85.947,388.408 46.535,411.159 57.215,429.616 96.596,406.881 96.596,452.367 117.926,452.367 117.926,406.881 157.338,429.632 
		167.988,411.159 128.576,388.408 167.988,365.657 157.323,347.2 117.926,369.951 	"/>
	<polygon style="fill:#434A54;" points="379.853,347.2 340.44,369.951 340.44,324.449 319.141,324.449 319.141,369.951 
		279.729,347.2 269.08,365.657 308.461,388.408 269.08,411.159 279.729,429.616 319.141,406.881 319.141,452.367 340.44,452.367 
		340.44,406.881 379.853,429.616 390.502,411.159 351.121,388.408 390.502,365.657 	"/>
</g>
<g>
	<path style="fill:#656D78;" d="M107.277,313.128c-20.799,0-39.631,8.417-53.247,22.049s-22.048,32.448-22.048,53.231
		c0,41.583,33.697,75.296,75.295,75.296c20.784,0,39.6-8.433,53.216-22.064c13.632-13.616,22.048-32.433,22.048-53.231
		C182.541,346.841,148.844,313.128,107.277,313.128z M145.424,426.571c-10.197,10.196-23.75,15.803-38.147,15.803
		c-14.428,0-27.982-5.606-38.163-15.803c-10.197-10.196-15.802-23.75-15.802-38.163s5.605-27.967,15.802-38.163l0,0l0,0
		c10.181-10.181,23.735-15.803,38.163-15.803c29.747,0,53.965,24.219,53.965,53.966
		C161.242,402.821,155.621,416.375,145.424,426.571z"/>
	<path style="fill:#656D78;" d="M329.791,313.128c-20.799,0-39.6,8.417-53.248,22.049c-13.615,13.632-22.048,32.448-22.048,53.231
		c0,41.583,33.713,75.296,75.296,75.296c20.799,0,39.6-8.433,53.231-22.064c13.632-13.616,22.063-32.433,22.063-53.231
		C405.086,346.841,371.358,313.128,329.791,313.128z M367.953,426.571c-10.195,10.196-23.75,15.803-38.162,15.803
		c-14.413,0-27.967-5.606-38.164-15.803c-10.18-10.196-15.802-23.75-15.802-38.163s5.622-27.967,15.802-38.163l0,0l0,0
		c10.197-10.181,23.751-15.803,38.164-15.803c29.762,0,53.965,24.219,53.965,53.966
		C383.756,402.821,378.135,416.375,367.953,426.571z"/>
</g>
</svg>